<svg version="1.1" id="Layer_1" xmlns="http://www.w3.org/2000/svg" xmlns:xlink="http://www.w3.org/1999/xlink" x="0px" y="0px"
	 width="100%" viewBox="0 0 512 512" enable-background="new 0 0 512 512" xml:space="preserve">
<path fill="#000000" opacity="1.000000" stroke="none" 
	d="
M323.000000,513.000000 
	C215.359482,513.000000 108.218956,513.000000 1.039217,513.000000 
	C1.039217,342.401123 1.039217,171.802231 1.039217,1.101671 
	C171.557190,1.101671 342.114471,1.101671 512.835876,1.101671 
	C512.835876,171.666534 512.835876,342.333252 512.835876,513.000000 
	C449.802216,513.000000 386.651093,513.000000 323.000000,513.000000 
M160.992523,236.969269 
	C162.748184,248.342850 158.482849,258.460999 153.738449,268.215027 
	C151.419724,272.982117 153.865280,276.496033 155.327682,279.913666 
	C157.229767,284.358795 160.408890,288.443848 163.721573,292.057587 
	C169.438766,298.294373 175.058060,305.050140 185.050995,304.191681 
	C185.916214,304.117371 187.912643,306.762787 187.852890,308.075134 
	C187.481293,316.234802 186.745270,324.381317 185.993118,332.519501 
	C184.668732,346.849152 194.795898,355.764160 202.010651,365.905334 
	C206.409836,372.088867 212.001678,377.419647 217.008865,383.176056 
	C222.411377,389.386993 227.626251,395.020111 236.453384,397.419830 
	C249.704330,401.022217 262.708923,400.777649 275.916779,398.939850 
	C283.621796,397.867767 290.565002,394.823334 295.742310,388.722626 
	C302.503235,380.755798 309.413361,372.892731 315.751434,364.596985 
	C320.923157,357.827850 325.584778,350.629913 329.959839,343.315369 
	C331.242981,341.170074 331.213196,337.946594 331.030243,335.268860 
	C330.304260,324.641785 329.279388,314.035126 328.349609,303.238953 
	C334.456146,304.739441 339.573822,304.395935 343.527313,300.787170 
	C348.669373,296.093414 353.472382,290.965363 357.968506,285.641785 
	C364.523682,277.880157 365.999451,269.727142 360.240845,260.346130 
	C356.781860,254.711258 355.088623,247.990326 356.009247,241.064865 
	C356.972260,233.820557 357.810516,226.551514 359.059113,219.355026 
	C361.579529,204.828339 359.542542,190.663696 355.283386,176.865189 
	C350.041077,159.881668 340.251282,145.706787 326.175873,134.746704 
	C316.181427,126.964333 304.967865,121.308189 292.863983,117.603905 
	C278.650909,113.254128 263.945404,111.912033 249.265823,113.216270 
	C239.643616,114.071175 230.004318,116.329796 220.728180,119.135193 
	C203.970245,124.203316 189.310410,133.062607 178.523712,147.162170 
	C174.068192,152.986099 170.731949,159.666306 166.220749,166.263214 
	C161.309128,177.673676 157.655273,189.367584 158.012314,202.729218 
	C157.970337,203.471817 157.928360,204.214432 157.150558,205.362411 
	C157.439194,211.179703 157.449249,217.028702 158.106323,222.804077 
	C158.613983,227.266159 159.932693,231.635941 160.992523,236.969269 
z"/>
<path fill="#FEFEFE" opacity="1.000000" stroke="none" 
	d="
M157.886383,204.957031 
	C157.928360,204.214432 157.970337,203.471817 158.440567,202.286438 
	C159.587051,199.899048 160.731186,198.001007 160.949844,196.001740 
	C161.899200,187.321274 163.048996,178.765579 167.362946,170.911011 
	C168.022919,169.709366 167.085342,167.630310 166.886627,165.957062 
	C170.731949,159.666306 174.068192,152.986099 178.523712,147.162170 
	C189.310410,133.062607 203.970245,124.203316 220.728180,119.135193 
	C230.004318,116.329796 239.643616,114.071175 249.265823,113.216270 
	C263.945404,111.912033 278.650909,113.254128 292.863983,117.603905 
	C304.967865,121.308189 316.181427,126.964333 326.175873,134.746704 
	C340.251282,145.706787 350.041077,159.881668 355.283386,176.865189 
	C359.542542,190.663696 361.579529,204.828339 359.059113,219.355026 
	C357.810516,226.551514 356.972260,233.820557 356.009247,241.064865 
	C355.088623,247.990326 356.781860,254.711258 360.240845,260.346130 
	C365.999451,269.727142 364.523682,277.880157 357.968506,285.641785 
	C353.472382,290.965363 348.669373,296.093414 343.527313,300.787170 
	C339.573822,304.395935 334.456146,304.739441 328.349609,303.238953 
	C329.279388,314.035126 330.304260,324.641785 331.030243,335.268860 
	C331.213196,337.946594 331.242981,341.170074 329.959839,343.315369 
	C325.584778,350.629913 320.923157,357.827850 315.751434,364.596985 
	C309.413361,372.892731 302.503235,380.755798 295.742310,388.722626 
	C290.565002,394.823334 283.621796,397.867767 275.916779,398.939850 
	C262.708923,400.777649 249.704330,401.022217 236.453384,397.419830 
	C227.626251,395.020111 222.411377,389.386993 217.008865,383.176056 
	C212.001678,377.419647 206.409836,372.088867 202.010651,365.905334 
	C194.795898,355.764160 184.668732,346.849152 185.993118,332.519501 
	C186.745270,324.381317 187.481293,316.234802 187.852890,308.075134 
	C187.912643,306.762787 185.916214,304.117371 185.050995,304.191681 
	C175.058060,305.050140 169.438766,298.294373 163.721573,292.057587 
	C160.408890,288.443848 157.229767,284.358795 155.327682,279.913666 
	C153.865280,276.496033 151.419724,272.982117 153.738449,268.215027 
	C158.482849,258.460999 162.748184,248.342850 161.255341,236.227814 
	C160.846680,227.994537 160.252197,220.494598 159.463074,213.015182 
	C159.177017,210.303879 158.425522,207.641647 157.886383,204.957031 
M316.984680,329.488190 
	C316.975372,329.287811 316.966095,329.087433 316.998138,328.252350 
	C317.054382,327.834747 317.110657,327.417175 317.840485,326.858337 
	C318.194092,324.788422 319.068817,322.644501 318.787781,320.664673 
	C318.275909,317.058289 317.078369,313.549225 316.012421,309.234680 
	C315.994202,308.194611 315.976013,307.154541 315.881958,305.396454 
	C314.846283,305.206268 313.521820,304.516968 312.828339,304.918213 
	C310.624512,306.193298 310.080597,314.555756 311.987823,317.854401 
	C312.291718,331.135345 305.814026,341.144440 296.619598,350.090912 
	C295.981323,346.511017 295.388306,343.184937 294.651459,339.052094 
	C291.158203,345.484436 288.360199,350.636536 285.263214,355.340149 
	C285.151337,355.199554 285.039429,355.058990 284.995239,354.025238 
	C284.995239,351.392548 284.995239,348.759857 284.995239,346.147766 
	C275.149780,345.783234 276.310638,355.047363 271.828796,360.723785 
	C271.828796,356.554108 271.828796,353.456085 271.828796,350.182373 
	C268.310944,350.182373 264.865173,350.182373 261.389832,350.182373 
	C260.641724,353.481445 259.914581,356.687897 259.187469,359.894379 
	C258.853943,359.890717 258.520416,359.887024 258.186890,359.883362 
	C257.271667,356.616730 256.356415,353.350098 255.502716,350.303040 
	C252.231400,350.303040 249.164291,350.303040 246.397034,350.303040 
	C246.397034,353.715210 246.397034,356.824890 246.397034,361.335236 
	C242.526749,354.751678 242.215454,346.638611 232.866455,345.943268 
	C232.866455,349.629181 232.866455,353.123413 232.866455,357.915466 
	C229.005646,351.263855 225.774170,345.696472 221.999466,339.193176 
	C221.420029,343.606262 220.993134,346.857422 220.463074,350.894501 
	C218.182312,347.786499 216.923965,345.446320 215.098618,343.698120 
	C208.875137,337.737823 206.403061,330.456696 205.864212,321.987213 
	C205.507507,316.380554 203.850281,310.856689 202.775284,305.295746 
	C202.172302,305.344604 201.569321,305.393494 200.966339,305.442352 
	C200.966339,312.324432 202.039520,319.422363 200.708908,326.036774 
	C198.822739,335.413086 200.617630,342.846222 207.098083,349.753021 
	C211.156799,354.078735 214.421570,359.149414 218.025864,364.641144 
	C221.377670,372.740784 226.432373,379.676178 233.603531,384.626343 
	C236.794174,386.828827 240.985336,388.426178 244.826691,388.672699 
	C253.919449,389.256134 263.125641,389.443329 272.184326,388.641968 
	C277.150696,388.202637 282.851776,386.545227 286.531128,383.436432 
	C291.379333,379.339996 294.560028,373.272827 298.473480,368.064819 
	C299.253723,367.026520 300.290131,366.138306 300.879639,365.009247 
	C301.724548,363.390961 302.267242,361.614929 302.984161,359.987061 
	C302.984161,359.987061 302.903564,359.941437 303.625153,359.912933 
	C311.912628,357.024109 313.176788,348.367920 317.829834,342.496735 
	C317.957733,342.335327 317.218933,341.487091 316.991974,340.112122 
	C317.050262,338.408203 317.108521,336.704285 317.866913,334.834656 
	C319.371307,332.874023 320.170532,331.055664 316.975708,330.005157 
	C316.975708,330.005157 316.942780,330.088531 316.984680,329.488190 
M195.398407,288.459625 
	C196.932419,288.028717 198.466431,287.597809 200.661011,287.013245 
	C201.107254,287.064484 201.553513,287.115692 202.158966,287.872955 
	C204.102661,288.581665 206.025406,289.822632 207.993912,289.900085 
	C214.081940,290.139587 215.137985,295.581421 217.737701,299.810791 
	C215.733414,309.091766 217.982056,317.595703 222.460114,327.054352 
	C223.782852,322.492340 224.742905,319.181183 225.702972,315.870026 
	C227.391983,323.268158 229.740326,329.527557 237.611542,331.508423 
	C238.249756,327.193207 238.861969,323.053802 239.474182,318.914429 
	C240.744888,319.945129 240.876114,320.862244 240.999420,321.780426 
	C242.076462,329.801422 245.428879,333.450104 252.618652,335.324127 
	C255.079742,335.965607 255.213028,336.010803 255.454178,333.272400 
	C255.777130,329.604767 257.510956,326.061340 258.780151,322.014618 
	C259.571259,325.083344 260.418579,327.821442 260.965637,330.618256 
	C261.828552,335.029968 264.055389,336.608704 267.915253,334.358795 
	C270.380768,332.921631 272.375244,330.277954 273.918213,327.767822 
	C275.485321,325.218475 276.238556,322.168884 277.844116,318.073456 
	C278.462524,323.522125 278.918457,327.539124 279.364960,331.473022 
	C288.259277,330.520447 289.438324,323.080048 291.672699,315.177979 
	C292.755188,319.739563 293.565857,323.155640 294.432953,326.809662 
	C300.646423,317.558777 302.858734,302.153625 298.807068,299.215637 
	C297.013885,300.755829 295.268768,302.254700 293.523651,303.753601 
	C293.002319,303.275391 292.481018,302.797211 291.959686,302.319000 
	C295.702576,297.885101 298.640533,291.976624 303.388885,289.384766 
	C309.538971,286.027802 317.048889,286.123077 324.365112,287.813995 
	C328.445435,288.757080 333.951477,289.532990 336.996643,287.567291 
	C341.734680,284.508789 345.205383,279.255157 348.642090,274.517609 
	C350.189850,272.384033 349.462067,269.724548 348.093536,266.851715 
	C345.667206,261.758209 344.201172,256.089294 343.104828,250.509537 
	C341.671631,243.215271 340.748535,236.022903 336.335419,229.536591 
	C330.025787,220.262741 329.786804,209.266159 333.888336,200.460144 
	C333.729492,210.362762 338.608643,217.822098 344.461700,224.816177 
	C344.985504,222.095612 345.913757,219.461548 345.925964,216.823242 
	C345.972839,206.680450 345.963501,196.680435 343.272034,186.578735 
	C340.057953,174.515564 334.618896,163.963943 326.338531,155.015305 
	C316.973389,144.894318 305.707733,137.815720 292.285370,133.288361 
	C281.690033,129.714539 271.209320,127.321136 260.198090,127.057541 
	C248.648727,126.781059 237.541168,128.813217 226.429214,132.465515 
	C215.919922,135.919724 206.229355,140.566895 198.056656,147.636292 
	C176.995758,165.854019 169.777023,189.837448 171.070587,216.914780 
	C171.182388,219.255142 172.275833,221.548615 172.913284,223.863861 
	C173.544235,223.965500 174.175201,224.067123 174.806152,224.168762 
	C178.154709,216.512207 181.503265,208.855637 184.689178,201.570938 
	C185.082825,204.616226 185.781250,208.148880 185.950760,211.706711 
	C186.346451,220.011398 181.840683,226.752441 178.637894,233.937424 
	C177.028137,237.548706 176.047485,241.465973 175.032974,245.310989 
	C173.566269,250.869843 173.262589,256.954773 170.764450,261.969208 
	C167.303131,268.916931 166.779373,274.838257 172.244171,280.606171 
	C176.844086,285.461243 180.938416,291.485046 189.245392,288.991913 
	C191.092545,288.437531 193.048950,288.247131 195.398407,288.459625 
z"/>
<path fill="#FEFEFE" opacity="1.000000" stroke="none" 
	d="
M166.553680,166.110138 
	C167.085342,167.630310 168.022919,169.709366 167.362946,170.911011 
	C163.048996,178.765579 161.899200,187.321274 160.949844,196.001740 
	C160.731186,198.001007 159.587051,199.899048 158.517822,201.921967 
	C157.655273,189.367584 161.309128,177.673676 166.553680,166.110138 
z"/>
<path fill="#FEFEFE" opacity="1.000000" stroke="none" 
	d="
M157.518478,205.159729 
	C158.425522,207.641647 159.177017,210.303879 159.463074,213.015182 
	C160.252197,220.494598 160.846680,227.994537 161.204468,235.766571 
	C159.932693,231.635941 158.613983,227.266159 158.106323,222.804077 
	C157.449249,217.028702 157.439194,211.179703 157.518478,205.159729 
z"/>
<path fill="#000000" opacity="1.000000" stroke="none" 
	d="
M201.999756,287.166931 
	C201.553513,287.115692 201.107254,287.064484 199.964081,287.013000 
	C197.829773,287.304871 196.392410,287.597015 194.955048,287.889160 
	C193.048950,288.247131 191.092545,288.437531 189.245392,288.991913 
	C180.938416,291.485046 176.844086,285.461243 172.244171,280.606171 
	C166.779373,274.838257 167.303131,268.916931 170.764450,261.969208 
	C173.262589,256.954773 173.566269,250.869843 175.032974,245.310989 
	C176.047485,241.465973 177.028137,237.548706 178.637894,233.937424 
	C181.840683,226.752441 186.346451,220.011398 185.950760,211.706711 
	C185.781250,208.148880 185.082825,204.616226 184.689178,201.570938 
	C181.503265,208.855637 178.154709,216.512207 174.806152,224.168762 
	C174.175201,224.067123 173.544235,223.965500 172.913284,223.863861 
	C172.275833,221.548615 171.182388,219.255142 171.070587,216.914780 
	C169.777023,189.837448 176.995758,165.854019 198.056656,147.636292 
	C206.229355,140.566895 215.919922,135.919724 226.429214,132.465515 
	C237.541168,128.813217 248.648727,126.781059 260.198090,127.057541 
	C271.209320,127.321136 281.690033,129.714539 292.285370,133.288361 
	C305.707733,137.815720 316.973389,144.894318 326.338531,155.015305 
	C334.618896,163.963943 340.057953,174.515564 343.272034,186.578735 
	C345.963501,196.680435 345.972839,206.680450 345.925964,216.823242 
	C345.913757,219.461548 344.985504,222.095612 344.461700,224.816177 
	C338.608643,217.822098 333.729492,210.362762 333.888336,200.460144 
	C329.786804,209.266159 330.025787,220.262741 336.335419,229.536591 
	C340.748535,236.022903 341.671631,243.215271 343.104828,250.509537 
	C344.201172,256.089294 345.667206,261.758209 348.093536,266.851715 
	C349.462067,269.724548 350.189850,272.384033 348.642090,274.517609 
	C345.205383,279.255157 341.734680,284.508789 336.996643,287.567291 
	C333.951477,289.532990 328.445435,288.757080 324.365112,287.813995 
	C317.048889,286.123077 309.538971,286.027802 303.388885,289.384766 
	C298.640533,291.976624 295.702576,297.885101 291.959686,302.319000 
	C292.481018,302.797211 293.002319,303.275391 293.523651,303.753601 
	C295.268768,302.254700 297.013885,300.755829 298.807068,299.215637 
	C302.858734,302.153625 300.646423,317.558777 294.432953,326.809662 
	C293.565857,323.155640 292.755188,319.739563 291.672699,315.177979 
	C289.438324,323.080048 288.259277,330.520447 279.364960,331.473022 
	C278.918457,327.539124 278.462524,323.522125 277.844116,318.073456 
	C276.238556,322.168884 275.485321,325.218475 273.918213,327.767822 
	C272.375244,330.277954 270.380768,332.921631 267.915253,334.358795 
	C264.055389,336.608704 261.828552,335.029968 260.965637,330.618256 
	C260.418579,327.821442 259.571259,325.083344 258.780151,322.014618 
	C257.510956,326.061340 255.777130,329.604767 255.454178,333.272400 
	C255.213028,336.010803 255.079742,335.965607 252.618652,335.324127 
	C245.428879,333.450104 242.076462,329.801422 240.999420,321.780426 
	C240.876114,320.862244 240.744888,319.945129 239.474182,318.914429 
	C238.861969,323.053802 238.249756,327.193207 237.611542,331.508423 
	C229.740326,329.527557 227.391983,323.268158 225.702972,315.870026 
	C224.742905,319.181183 223.782852,322.492340 222.460114,327.054352 
	C217.982056,317.595703 215.733414,309.091766 218.246109,299.514221 
	C220.309448,300.403290 221.864395,301.588867 223.610641,302.997192 
	C224.137314,303.352081 224.472672,303.484253 224.808029,303.616394 
	C224.565231,303.052765 224.322418,302.489105 224.040283,301.560028 
	C219.868591,291.497620 212.416351,287.007599 201.999756,287.166931 
M245.715057,250.805939 
	C241.125275,251.739532 237.086609,250.424622 233.172073,248.046616 
	C224.401352,242.718475 215.685654,237.270630 206.665131,232.393921 
	C201.366470,229.529343 195.881958,226.722351 189.410583,230.813080 
	C184.280655,234.055878 183.991333,239.558990 184.352982,243.563599 
	C185.564056,256.973480 191.082504,268.390778 204.907150,273.342194 
	C215.186676,277.023834 225.551544,277.444855 234.433731,269.959656 
	C240.025177,265.247681 245.146729,259.846466 249.796249,254.192902 
	C253.106506,250.167755 252.717941,245.292313 250.791000,242.442841 
	C249.413528,244.792938 247.835205,247.485687 245.715057,250.805939 
M271.763123,302.020111 
	C272.841827,299.542633 275.274780,296.728455 274.757477,294.647797 
	C272.839600,286.933960 270.468353,279.234802 267.285675,271.959656 
	C263.752716,263.883850 255.867630,263.752472 250.985748,271.132935 
	C246.388275,278.083374 243.516205,285.819153 242.243820,293.909485 
	C241.628891,297.819580 243.549927,301.855011 248.037674,303.582825 
	C252.340836,305.239624 254.349731,302.630096 256.106720,299.412323 
	C256.878357,297.999084 257.729736,296.629395 258.384521,295.513306 
	C261.282867,298.929504 264.063202,302.206635 266.659027,305.266296 
	C268.659454,303.966614 269.874115,303.177429 271.763123,302.020111 
M328.957184,231.434875 
	C324.638184,227.762466 319.780090,227.989426 315.237274,230.394135 
	C303.210907,236.760284 291.438812,243.606277 279.423401,249.993958 
	C273.610596,253.084183 268.952576,250.391663 267.994843,243.918564 
	C267.849487,242.936111 267.625763,241.965256 267.275208,240.139786 
	C264.734283,247.407669 265.837921,253.297165 270.003418,257.481934 
	C272.233612,259.722473 274.905853,261.676880 276.601379,264.268860 
	C283.697784,275.117188 294.415375,276.485809 305.653015,274.935822 
	C317.314728,273.327362 325.682251,266.672821 330.130768,255.433624 
	C333.277618,247.483292 334.910309,239.682739 328.957184,231.434875 
z"/>
<path fill="#000000" opacity="1.000000" stroke="none" 
	d="
M317.166931,326.999573 
	C317.110657,327.417175 317.054382,327.834747 316.712494,328.658813 
	C316.598816,329.406403 316.770782,329.747467 316.942780,330.088531 
	C316.942780,330.088531 316.975708,330.005157 316.984406,330.442505 
	C317.050995,332.253326 317.108887,333.626862 317.166809,335.000366 
	C317.108521,336.704285 317.050262,338.408203 316.617065,340.674622 
	C315.877655,341.942078 315.598358,342.709442 315.135284,343.342316 
	C311.076630,348.888977 306.985260,354.411652 302.903564,359.941437 
	C302.903564,359.941437 302.984161,359.987061 302.644287,360.071899 
	C299.091553,364.038696 296.205139,368.262695 292.585297,371.718414 
	C287.783020,376.302917 284.603668,382.785950 277.171356,384.448242 
	C267.101715,386.700378 256.996979,387.331177 246.834747,385.878571 
	C238.538849,384.692749 231.647980,381.119415 226.915680,373.627777 
	C224.605896,369.971222 221.039932,367.108124 218.042572,363.885864 
	C214.421570,359.149414 211.156799,354.078735 207.098083,349.753021 
	C200.617630,342.846222 198.822739,335.413086 200.708908,326.036774 
	C202.039520,319.422363 200.966339,312.324432 200.966339,305.442352 
	C201.569321,305.393494 202.172302,305.344604 202.775284,305.295746 
	C203.850281,310.856689 205.507507,316.380554 205.864212,321.987213 
	C206.403061,330.456696 208.875137,337.737823 215.098618,343.698120 
	C216.923965,345.446320 218.182312,347.786499 220.463074,350.894501 
	C220.993134,346.857422 221.420029,343.606262 221.999466,339.193176 
	C225.774170,345.696472 229.005646,351.263855 232.866455,357.915466 
	C232.866455,353.123413 232.866455,349.629181 232.866455,345.943268 
	C242.215454,346.638611 242.526749,354.751678 246.397034,361.335236 
	C246.397034,356.824890 246.397034,353.715210 246.397034,350.303040 
	C249.164291,350.303040 252.231400,350.303040 255.502716,350.303040 
	C256.356415,353.350098 257.271667,356.616730 258.186890,359.883362 
	C258.520416,359.887024 258.853943,359.890717 259.187469,359.894379 
	C259.914581,356.687897 260.641724,353.481445 261.389832,350.182373 
	C264.865173,350.182373 268.310944,350.182373 271.828796,350.182373 
	C271.828796,353.456085 271.828796,356.554108 271.828796,360.723785 
	C276.310638,355.047363 275.149780,345.783234 284.995239,346.147766 
	C284.995239,348.759857 284.995239,351.392548 284.652039,354.430969 
	C283.946747,354.677979 283.584656,354.519257 283.222595,354.360504 
	C283.438019,355.010895 283.528076,355.765564 283.935974,356.255859 
	C284.081116,356.430359 284.997742,355.963043 285.562195,355.788666 
	C288.360199,350.636536 291.158203,345.484436 294.651459,339.052094 
	C295.388306,343.184937 295.981323,346.511017 296.619598,350.090912 
	C305.814026,341.144440 312.291718,331.135345 311.988037,317.019165 
	C312.332336,314.147949 312.406281,312.012573 313.107269,310.107971 
	C313.652069,308.627594 314.978668,307.434967 315.957825,306.114471 
	C315.976013,307.154541 315.994202,308.194611 316.012299,310.026031 
	C315.922150,312.098999 315.655579,313.397247 315.774536,314.659180 
	C316.162994,318.779785 316.691986,322.887115 317.166931,326.999573 
z"/>
<path fill="#FEFEFE" opacity="1.000000" stroke="none" 
	d="
M218.034210,364.263489 
	C221.039932,367.108124 224.605896,369.971222 226.915680,373.627777 
	C231.647980,381.119415 238.538849,384.692749 246.834747,385.878571 
	C256.996979,387.331177 267.101715,386.700378 277.171356,384.448242 
	C284.603668,382.785950 287.783020,376.302917 292.585297,371.718414 
	C296.205139,368.262695 299.091553,364.038696 302.621704,360.031464 
	C302.267242,361.614929 301.724548,363.390961 300.879639,365.009247 
	C300.290131,366.138306 299.253723,367.026520 298.473480,368.064819 
	C294.560028,373.272827 291.379333,379.339996 286.531128,383.436432 
	C282.851776,386.545227 277.150696,388.202637 272.184326,388.641968 
	C263.125641,389.443329 253.919449,389.256134 244.826691,388.672699 
	C240.985336,388.426178 236.794174,386.828827 233.603531,384.626343 
	C226.432373,379.676178 221.377670,372.740784 218.034210,364.263489 
z"/>
<path fill="#FEFEFE" opacity="1.000000" stroke="none" 
	d="
M223.419327,302.774475 
	C221.864395,301.588867 220.309448,300.403290 218.431000,299.133026 
	C215.137985,295.581421 214.081940,290.139587 207.993912,289.900085 
	C206.025406,289.822632 204.102661,288.581665 202.079361,287.519958 
	C212.416351,287.007599 219.868591,291.497620 223.865723,301.764893 
	C223.626770,302.481628 223.523041,302.628052 223.419327,302.774475 
z"/>
<path fill="#FEFEFE" opacity="1.000000" stroke="none" 
	d="
M303.264343,359.927185 
	C306.985260,354.411652 311.076630,348.888977 315.135284,343.342316 
	C315.598358,342.709442 315.877655,341.942078 316.563232,341.098114 
	C317.218933,341.487091 317.957733,342.335327 317.829834,342.496735 
	C313.176788,348.367920 311.912628,357.024109 303.264343,359.927185 
z"/>
<path fill="#FEFEFE" opacity="1.000000" stroke="none" 
	d="
M317.503693,326.928955 
	C316.691986,322.887115 316.162994,318.779785 315.774536,314.659180 
	C315.655579,313.397247 315.922150,312.098999 316.089539,310.408478 
	C317.078369,313.549225 318.275909,317.058289 318.787781,320.664673 
	C319.068817,322.644501 318.194092,324.788422 317.503693,326.928955 
z"/>
<path fill="#FEFEFE" opacity="1.000000" stroke="none" 
	d="
M315.919861,305.755463 
	C314.978668,307.434967 313.652069,308.627594 313.107269,310.107971 
	C312.406281,312.012573 312.332336,314.147949 311.910706,316.592163 
	C310.080597,314.555756 310.624512,306.193298 312.828339,304.918213 
	C313.521820,304.516968 314.846283,305.206268 315.919861,305.755463 
z"/>
<path fill="#FEFEFE" opacity="1.000000" stroke="none" 
	d="
M195.176727,288.174377 
	C196.392410,287.597015 197.829773,287.304871 199.633789,287.089813 
	C198.466431,287.597809 196.932419,288.028717 195.176727,288.174377 
z"/>
<path fill="#FEFEFE" opacity="1.000000" stroke="none" 
	d="
M317.516846,334.917511 
	C317.108887,333.626862 317.050995,332.253326 316.948120,330.468811 
	C320.170532,331.055664 319.371307,332.874023 317.516846,334.917511 
z"/>
<path fill="#FEFEFE" opacity="1.000000" stroke="none" 
	d="
M316.963745,329.788361 
	C316.770782,329.747467 316.598816,329.406403 316.691833,328.976166 
	C316.966095,329.087433 316.975372,329.287811 316.963745,329.788361 
z"/>
<path fill="#FFFFFF" opacity="1.000000" stroke="none" 
	d="
M245.985962,250.492188 
	C247.835205,247.485687 249.413528,244.792938 250.791000,242.442841 
	C252.717941,245.292313 253.106506,250.167755 249.796249,254.192902 
	C245.146729,259.846466 240.025177,265.247681 234.433731,269.959656 
	C225.551544,277.444855 215.186676,277.023834 204.907150,273.342194 
	C191.082504,268.390778 185.564056,256.973480 184.352982,243.563599 
	C183.991333,239.558990 184.280655,234.055878 189.410583,230.813080 
	C195.881958,226.722351 201.366470,229.529343 206.665131,232.393921 
	C215.685654,237.270630 224.401352,242.718475 233.172073,248.046616 
	C237.086609,250.424622 241.125275,251.739532 245.985962,250.492188 
z"/>
<path fill="#FFFFFF" opacity="1.000000" stroke="none" 
	d="
M271.425964,302.204163 
	C269.874115,303.177429 268.659454,303.966614 266.659027,305.266296 
	C264.063202,302.206635 261.282867,298.929504 258.384521,295.513306 
	C257.729736,296.629395 256.878357,297.999084 256.106720,299.412323 
	C254.349731,302.630096 252.340836,305.239624 248.037674,303.582825 
	C243.549927,301.855011 241.628891,297.819580 242.243820,293.909485 
	C243.516205,285.819153 246.388275,278.083374 250.985748,271.132935 
	C255.867630,263.752472 263.752716,263.883850 267.285675,271.959656 
	C270.468353,279.234802 272.839600,286.933960 274.757477,294.647797 
	C275.274780,296.728455 272.841827,299.542633 271.425964,302.204163 
z"/>
<path fill="#FEFEFE" opacity="1.000000" stroke="none" 
	d="
M329.235962,231.721771 
	C334.910309,239.682739 333.277618,247.483292 330.130768,255.433624 
	C325.682251,266.672821 317.314728,273.327362 305.653015,274.935822 
	C294.415375,276.485809 283.697784,275.117188 276.601379,264.268860 
	C274.905853,261.676880 272.233612,259.722473 270.003418,257.481934 
	C265.837921,253.297165 264.734283,247.407669 267.275208,240.139786 
	C267.625763,241.965256 267.849487,242.936111 267.994843,243.918564 
	C268.952576,250.391663 273.610596,253.084183 279.423401,249.993958 
	C291.438812,243.606277 303.210907,236.760284 315.237274,230.394135 
	C319.780090,227.989426 324.638184,227.762466 329.235962,231.721771 
M289.416443,270.245483 
	C294.482666,270.824493 299.670959,272.370880 304.585876,271.750732 
	C311.566376,270.869904 318.755981,269.251251 322.672668,261.986786 
	C324.775909,258.085846 328.588928,254.607010 329.242645,250.552719 
	C330.033813,245.645554 328.408539,240.313065 327.548798,235.211838 
	C327.410889,234.393478 325.745819,233.161835 324.898010,233.245712 
	C320.365845,233.694153 315.278503,233.387436 311.478638,235.405029 
	C302.631165,240.102661 294.411713,245.982483 285.927887,251.367599 
	C285.519714,251.626694 285.019043,251.743118 284.556854,251.913513 
	C281.408112,253.074417 278.258118,254.231995 274.877747,255.475525 
	C277.780212,262.656860 283.017517,266.535858 289.416443,270.245483 
z"/>
<path fill="#FEFEFE" opacity="1.000000" stroke="none" 
	d="
M223.905060,302.130341 
	C224.322418,302.489105 224.565231,303.052765 224.808029,303.616394 
	C224.472672,303.484253 224.137314,303.352081 223.610641,302.997192 
	C223.523041,302.628052 223.626770,302.481628 223.905060,302.130341 
z"/>
<path fill="#FEFEFE" opacity="1.000000" stroke="none" 
	d="
M285.412720,355.564392 
	C284.997742,355.963043 284.081116,356.430359 283.935974,356.255859 
	C283.528076,355.765564 283.438019,355.010895 283.222595,354.360504 
	C283.584656,354.519257 283.946747,354.677979 284.618164,354.877563 
	C285.039429,355.058990 285.151337,355.199554 285.412720,355.564392 
z"/>
<path fill="#FFFFFF" opacity="1.000000" stroke="none" 
	d="
M289.033630,270.142059 
	C283.017517,266.535858 277.780212,262.656860 274.877747,255.475525 
	C278.258118,254.231995 281.408112,253.074417 284.556854,251.913513 
	C285.019043,251.743118 285.519714,251.626694 285.927887,251.367599 
	C294.411713,245.982483 302.631165,240.102661 311.478638,235.405029 
	C315.278503,233.387436 320.365845,233.694153 324.898010,233.245712 
	C325.745819,233.161835 327.410889,234.393478 327.548798,235.211838 
	C328.408539,240.313065 330.033813,245.645554 329.242645,250.552719 
	C328.588928,254.607010 324.775909,258.085846 322.672668,261.986786 
	C318.755981,269.251251 311.566376,270.869904 304.585876,271.750732 
	C299.670959,272.370880 294.482666,270.824493 289.033630,270.142059 
z"/>
</svg>