<?xml version="1.0" encoding="UTF-8"?>
<svg version="1.1" xmlns="http://www.w3.org/2000/svg" width="512" height="512">
<path d="M0 0 C1.61261719 0.63228516 1.61261719 0.63228516 3.2578125 1.27734375 C26.30896139 10.66209875 45.17059908 26.91353907 55 50 C62.8027485 69.91728809 63.79282206 90.41798549 60.07641602 111.31982422 C58.54371607 120.09793072 58.0099679 129.24385878 60 138 C60.66 138.33 61.32 138.66 62 139 C64.94356515 144.51112745 67.46302346 150.72989946 66 157 C62.2112561 167.12454253 53.35193771 178.46122246 43.75 183.8125 C39.47779192 185.16536589 36.4481619 185.08767124 32 185 C31.80175642 193.79981243 31.91680828 202.27901123 33.1875 211 C34.05376336 217.43292815 34.19772388 222.23325727 31 228 C30.56816406 228.80953125 30.13632812 229.6190625 29.69140625 230.453125 C25.4698736 237.65394378 20.06540392 243.73217822 14.546875 249.94140625 C12.06485633 252.74713648 9.67368711 255.60658415 7.328125 258.52734375 C6.71976807 259.28321777 6.11141113 260.0390918 5.48461914 260.81787109 C4.322621 262.2692243 3.16764438 263.72623947 2.02124023 265.18994141 C-4.13687381 272.84826217 -10.51147904 277.43637984 -20 280 C-21.05703125 280.350625 -22.1140625 280.70125 -23.203125 281.0625 C-27.64048625 282.15814475 -31.64027639 282.30173543 -36.1875 282.25 C-37.02249023 282.24540771 -37.85748047 282.24081543 -38.71777344 282.23608398 C-45.29879152 282.14012669 -51.55517717 281.33587309 -58 280 C-60.33026663 279.63689338 -62.66317869 279.31865745 -65 279 C-65 278.34 -65 277.68 -65 277 C-66.3303125 276.62875 -66.3303125 276.62875 -67.6875 276.25 C-73.21663495 274.16353398 -76.56766447 270.56384517 -80.1875 266 C-80.95707031 265.0409375 -81.72664063 264.081875 -82.51953125 263.09375 C-83.33808594 262.0728125 -84.15664062 261.051875 -85 260 C-86.7815842 257.82489319 -88.57656148 255.66117948 -90.375 253.5 C-91.59316406 252.03046875 -91.59316406 252.03046875 -92.8359375 250.53125 C-94.49899147 248.58601719 -96.19000274 246.79980009 -98 245 C-105.43947841 235.97676708 -112.31934261 226.48569219 -112.1875 214.5 C-112.18105469 213.2109375 -112.17460937 211.921875 -112.16796875 210.59375 C-112 207 -112 207 -111.4921875 204.55078125 C-110.79472965 200.93617829 -110.89492543 197.3521883 -110.9375 193.6875 C-110.94201172 192.94693359 -110.94652344 192.20636719 -110.95117188 191.44335938 C-110.96287825 189.62887101 -110.98081102 187.81442466 -111 186 C-111.56847656 185.97421875 -112.13695312 185.9484375 -112.72265625 185.921875 C-122.14235357 185.22994398 -127.38406273 181.30488313 -133.5703125 174.1953125 C-134.60915274 172.9858415 -135.64223004 171.77138325 -136.66796875 170.55078125 C-137.72555357 169.31951682 -138.85228537 168.14771463 -140 167 C-140.495 165.4840625 -140.495 165.4840625 -141 163.9375 C-141.65752556 160.87849194 -141.65752556 160.87849194 -144 160 C-145.67201357 156.12092852 -146.7409831 153.31758237 -145.41503906 149.17041016 C-144.02042138 145.80440912 -142.38730425 142.58203596 -140.69921875 139.35546875 C-138.10192669 134.22656327 -137.84167992 130.51595285 -137.8125 124.75 C-137.79123047 122.85507812 -137.79123047 122.85507812 -137.76953125 120.921875 C-137.97316608 117.45663146 -138.60529925 114.51615363 -139.51245117 111.18359375 C-140.47189268 106.88652573 -140.57461951 102.5124599 -140.75 98.125 C-140.79092773 97.11920898 -140.83185547 96.11341797 -140.87402344 95.07714844 C-141.67616247 68.95387821 -134.57284294 43.84139877 -117 24 C-109.18075826 15.72615118 -99.61809079 9.54189951 -89.5 4.4375 C-88.84217529 4.10322998 -88.18435059 3.76895996 -87.5065918 3.42456055 C-83.65916355 1.5570724 -80.19721673 0.6637165 -76 0 C-75.67 -0.66 -75.34 -1.32 -75 -2 C-72.61319118 -2.62199881 -70.29631906 -3.12583082 -67.875 -3.5625 C-67.22273438 -3.68818359 -66.57046875 -3.81386719 -65.8984375 -3.94335938 C-63.93591394 -4.31522644 -61.96789127 -4.65767299 -60 -5 C-58.93652344 -5.18949219 -57.87304688 -5.37898438 -56.77734375 -5.57421875 C-38.31396227 -7.65540653 -17.39992987 -7.19478069 0 0 Z M-102 30 C-102.71027344 30.62777344 -103.42054688 31.25554687 -104.15234375 31.90234375 C-109.53123038 36.95085731 -113.33664027 42.62503576 -117 49 C-117.4640625 49.79148438 -117.928125 50.58296875 -118.40625 51.3984375 C-124.94693034 63.40297886 -127.17693259 77.09871862 -127.1875 90.625 C-127.19974609 91.45773438 -127.21199219 92.29046875 -127.22460938 93.1484375 C-127.23512945 97.55284418 -127.06869561 100.99343537 -125 105 C-119.27557886 100.12364125 -115.92690692 93.884384 -115.1875 86.4375 C-115.10425595 84.95935565 -115.03398968 83.48009627 -115 82 C-114.34 82 -113.68 82 -113 82 C-112.48697639 93.3577726 -113.3237544 101.71315604 -118.53125 112.03515625 C-122.12991099 119.29421996 -123.64547385 125.36255376 -124.43359375 133.41796875 C-125.0065415 137.04136933 -126.00093224 139.66674515 -127.625 142.9375 C-130.03675411 147.82599561 -131.0516807 150.56631639 -130 156 C-126.67964915 161.62562301 -121.48506499 168.35358374 -115.1484375 170.6796875 C-112.48738711 171.07642592 -110.43758245 170.69111822 -107.8125 170.125 C-106.93207031 169.94195312 -106.05164063 169.75890625 -105.14453125 169.5703125 C-103.03373485 169.20094317 -103.03373485 169.20094317 -102 168 C-93.75700614 167.80988153 -86.86129385 169.36959943 -80 174 C-77.17604936 176.82395064 -75.58856641 179.02717676 -75 183 C-76.65 182.01 -78.3 181.02 -80 180 C-81.65215291 181.65215291 -81.21095636 183.53820779 -81.25 185.8125 C-81.19098599 192.26188781 -80.8018292 200.78232754 -76.39453125 205.84375 C-75.93433594 206.2253125 -75.47414062 206.606875 -75 207 C-73.68373308 203.38026598 -73 200.90432869 -73 197 C-72.34 197 -71.68 197 -71 197 C-70.77213542 199.01822917 -70.54427083 201.03645833 -70.31640625 203.0546875 C-70.08707039 205.07404316 -70.08707039 205.07404316 -69 207 C-68.34 207 -67.68 207 -67 207 C-67 207.99 -67 208.98 -67 210 C-64.69 210.99 -62.38 211.98 -60 213 C-59.505 206.565 -59.505 206.565 -59 200 C-58.34 200 -57.68 200 -57 200 C-56.9175 201.19625 -56.835 202.3925 -56.75 203.625 C-56.1818324 207.96303641 -54.94682178 210.66543851 -52 214 C-49.6453183 215.46966466 -47.70570373 216.16369158 -45 217 C-44.01 216.67 -43.02 216.34 -42 216 C-40.96961044 213.43957934 -40.96961044 213.43957934 -40.3125 210.4375 C-40.06113281 209.42558594 -39.80976563 208.41367187 -39.55078125 207.37109375 C-39.36902344 206.58863281 -39.18726563 205.80617188 -39 205 C-38.86722656 205.71027344 -38.73445313 206.42054688 -38.59765625 207.15234375 C-38.33275391 208.53099609 -38.33275391 208.53099609 -38.0625 209.9375 C-37.80146484 211.31228516 -37.80146484 211.31228516 -37.53515625 212.71484375 C-37.22285012 214.95289844 -37.22285012 214.95289844 -36 216 C-32.52027747 216.39542301 -30.49850963 216.26112409 -27.375 214.625 C-24.00411163 210.89928127 -22.6084704 206.70859491 -21 202 C-19.85185003 204.29629994 -19.69230191 206.07698086 -19.4375 208.625 C-19.35371094 209.44226563 -19.26992188 210.25953125 -19.18359375 211.1015625 C-19.12300781 211.72804688 -19.06242187 212.35453125 -19 213 C-13.34840988 211.04368034 -10.94232631 209.44875242 -8 204 C-7.28426473 202.35380887 -6.5974304 200.69271945 -6 199 C-5.01 203.455 -5.01 203.455 -4 208 C1.40555891 202.0538852 2.20880431 195.90085224 2.625 188.0625 C2.68300781 187.03672852 2.68300781 187.03672852 2.7421875 185.99023438 C2.83522412 184.32720487 2.91863787 182.66364153 3 181 C1.68 181 0.36 181 -1 181 C-1 181.66 -1 182.32 -1 183 C-1.99 183.33 -2.98 183.66 -4 184 C-2.64208654 178.29676346 -0.1051335 175.92664944 4 172 C4 171.34 4 170.68 4 170 C11.97002085 168.48190079 21.14543407 167.76536765 29 170 C33.24390972 170.7020001 36.59098724 170.91693846 40.29296875 168.5078125 C42.29783198 166.74762293 44.16979885 164.93992544 46 163 C46.66 162.34 47.32 161.68 48 161 C48 160.01 48 159.02 48 158 C48.66 158 49.32 158 50 158 C51.48435882 154.07634484 52.28653881 151.87137735 50.953125 147.81640625 C50.39109375 146.74261719 49.8290625 145.66882813 49.25 144.5625 C46.68818517 139.32103679 45.49898115 134.80709704 45.0625 129 C44.46890978 121.75591966 42.26872507 116.50723106 38.75390625 110.18359375 C36.00604868 105.19583446 33.5615438 100.73252811 33.75 94.9375 C33.76546875 94.14214844 33.7809375 93.34679687 33.796875 92.52734375 C34.02838359 89.64684262 34.48834665 86.8429771 35 84 C35.20753906 84.75023437 35.41507813 85.50046875 35.62890625 86.2734375 C37.92744541 93.9095885 41.0729391 99.74429346 46 106 C46.33 105.34 46.66 104.68 47 104 C46.67 103.34 46.34 102.68 46 102 C46.66 102 47.32 102 48 102 C48.7902248 77.93157629 46.5362526 56.2305467 30.17578125 37.296875 C12.49714849 18.6343327 -10.64696646 8.36255825 -36.38134766 7.64868164 C-60.22539019 7.42777695 -83.91749265 13.87566604 -102 30 Z M-96 186 C-97.21633137 192.61316297 -97.5688765 199.24673471 -97.89160156 205.95019531 C-97.99158293 207.84083402 -98.13072413 209.72929346 -98.2734375 211.6171875 C-98.67313471 219.70629765 -97.23390312 223.90048982 -92 230 C-91.1646875 231.00804687 -90.329375 232.01609375 -89.46875 233.0546875 C-87.60017684 235.29590868 -85.71051948 237.51695831 -83.8046875 239.7265625 C-81.25190593 242.69057714 -78.77390087 245.70944598 -76.3125 248.75 C-74.87631065 250.50107578 -73.43885576 252.25111454 -72 254 C-71.31035156 254.85078125 -70.62070313 255.7015625 -69.91015625 256.578125 C-61.63635155 266.4241114 -53.06241262 267.02730011 -40.65625 268.2265625 C-35.63947888 268.43881051 -30.74476827 267.59178123 -25.8125 266.75 C-25.13461426 266.64083252 -24.45672852 266.53166504 -23.75830078 266.41918945 C-16.59671736 265.07848055 -12.26194689 261.78502167 -7.875 256.125 C-4.86231877 252.31231266 -1.80072525 248.58942055 1.40673828 244.93920898 C3.46608395 242.58262123 5.48481705 240.19365756 7.49365234 237.79394531 C8.4907531 236.60647427 9.49621803 235.42597216 10.51025391 234.25292969 C17.33759196 226.26401941 20.12791727 220.70755731 19.44921875 210.08203125 C19.08813771 206.97092545 19.08813771 206.97092545 18 204 C17.92026524 202.66474283 17.89228662 201.32587917 17.90234375 199.98828125 C17.90717773 198.85229492 17.90717773 198.85229492 17.91210938 197.69335938 C17.92467773 196.51483398 17.92467773 196.51483398 17.9375 195.3125 C17.94201172 194.51521484 17.94652344 193.71792969 17.95117188 192.89648438 C17.9629415 190.93095743 17.98087652 188.96546915 18 187 C17.34 187 16.68 187 16 187 C15.53904422 189.24946421 15.0814048 191.49960801 14.625 193.75 C14.48489502 194.4301416 14.34479004 195.1102832 14.20043945 195.81103516 C13.35337787 199.99013299 12.71800819 204.1418728 12.1875 208.375 C11.22048193 214.37857049 8.68259049 218.26782598 5 223 C4.08003819 224.33106191 3.16309865 225.66422067 2.25 227 C0 230 0 230 -2 231 C-1.96744792 228.98177083 -1.93489583 226.96354167 -1.90234375 224.9453125 C-1.87350758 222.91814596 -1.87350758 222.91814596 -3 221 C-3.66 221 -4.32 221 -5 221 C-7.64 226.28 -10.28 231.56 -13 237 C-13 233.66666667 -13 230.33333333 -13 227 C-14.98 227.33 -16.96 227.66 -19 228 C-19.33 228.99 -19.66 229.98 -20 231 C-20.66 231 -21.32 231 -22 231 C-22.99 233.64 -23.98 236.28 -25 239 C-26 236 -26 236 -26 231 C-29.63 231 -33.26 231 -37 231 C-37.66 233.97 -38.32 236.94 -39 240 C-39.99 237.03 -40.98 234.06 -42 231 C-45.3 231 -48.6 231 -52 231 C-52 233.97 -52 236.94 -52 240 C-53.57014723 238.42985277 -54.1790926 236.46078791 -55.0625 234.4375 C-55.42472656 233.61121094 -55.78695312 232.78492188 -56.16015625 231.93359375 C-56.43730469 231.29550781 -56.71445313 230.65742188 -57 230 C-57.66 230 -58.32 230 -59 230 C-59 229.34 -59 228.68 -59 228 C-61.97 227.505 -61.97 227.505 -65 227 C-65.495 231.95 -65.495 231.95 -66 237 C-68.97 231.72 -71.94 226.44 -75 221 C-77.18331689 222.76136355 -77.18331689 222.76136355 -77.1953125 224.9453125 C-77.17210937 225.66460937 -77.14890625 226.38390625 -77.125 227.125 C-77.08375 228.40375 -77.0425 229.6825 -77 231 C-77.66 231 -78.32 231 -79 231 C-79.185625 230.34 -79.37125 229.68 -79.5625 229 C-80.9563465 226.09110296 -82.23492268 224.60336629 -84.4375 222.3125 C-90.82815631 215.19261942 -91.39535303 206.4030679 -92.5703125 197.19921875 C-93.32915951 191.26329214 -93.32915951 191.26329214 -96 186 Z " fill="#FEFEFE" transform="translate(297,118)"/>
<path d="M0 0 C9.06966873 1.89412289 17.03563853 8.02441866 24.76196289 12.90917969 C35.79450984 20.39778228 35.79450984 20.39778228 48.5625 21.53515625 C50.56969496 19.35652806 50.56969496 19.35652806 51.5625 16.53515625 C51.954375 15.77203125 52.34625 15.00890625 52.75 14.22265625 C53.018125 13.66578125 53.28625 13.10890625 53.5625 12.53515625 C55.09847454 15.60710533 54.7890038 18.13759918 54.5625 21.53515625 C52.84866888 26.37420883 50.02265651 29.30297564 46.3671875 32.74609375 C44.66062216 34.43788364 43.30677973 36.1744965 41.875 38.09765625 C37.20732955 43.57009746 30.58114165 46.85499856 23.5390625 48.046875 C14.74972058 48.38137751 5.5721009 46.33146282 -1.375 40.72265625 C-4.57325763 37.63414276 -7.088823 34.30727385 -9.4375 30.53515625 C-9.4375 29.54515625 -9.4375 28.55515625 -9.4375 27.53515625 C-10.0975 27.20515625 -10.7575 26.87515625 -11.4375 26.53515625 C-13.34808955 19.3067591 -14.30907856 12.5268258 -11.4375 5.53515625 C-8.24513181 0.8917116 -5.44987041 -0.3495805 0 0 Z " fill="#FEFEFE" transform="translate(196.4375,227.46484375)"/>
<path d="M0 0 C3.3665873 1.86236744 4.63257842 3.24766057 6.3125 6.6875 C8.26521777 16.09604926 6.45631551 23.90679941 1.71484375 32.265625 C-3.33778844 39.64049761 -10.65077015 44.33193949 -19.2578125 46.59765625 C-27.54810271 47.81403786 -35.42966153 46.41407421 -43 43 C-43 42.34 -43 41.68 -43 41 C-43.54398437 40.79117188 -44.08796875 40.58234375 -44.6484375 40.3671875 C-47.88052699 38.48806571 -50.15501931 35.87896242 -52.625 33.125 C-53.11484375 32.59519531 -53.6046875 32.06539063 -54.109375 31.51953125 C-58.55000135 26.62998912 -60.28256085 23.86755586 -60.125 17.25 C-60.09792969 15.77273437 -60.09792969 15.77273437 -60.0703125 14.265625 C-60.04710937 13.51796875 -60.02390625 12.7703125 -60 12 C-59.34 12 -58.68 12 -58 12 C-57.87882812 12.56589844 -57.75765625 13.13179687 -57.6328125 13.71484375 C-57.46523438 14.44832031 -57.29765625 15.18179688 -57.125 15.9375 C-56.96257812 16.66839844 -56.80015625 17.39929688 -56.6328125 18.15234375 C-56.17038477 20.20700294 -56.17038477 20.20700294 -54 21 C-48.3859061 21.48457037 -44.54613883 20.25524057 -39.6875 17.625 C-39.06810547 17.30789062 -38.44871094 16.99078125 -37.81054688 16.6640625 C-35.20855195 15.30797394 -33.08569981 14.08569981 -31 12 C-26.9507684 9.54495407 -22.82042497 7.24161686 -18.68115234 4.94238281 C-17.3142293 4.17614364 -15.96146053 3.38469511 -14.61328125 2.5859375 C-9.77780102 -0.14076332 -5.42890981 -1.01533046 0 0 Z " fill="#FEFEFE" transform="translate(325,228)"/>
<path d="M0 0 C5.19458585 3.12827674 6.70651197 7.1330531 8.75 12.5625 C9.05292969 13.33013672 9.35585938 14.09777344 9.66796875 14.88867188 C12.08304965 21.04444476 13.88662823 26.29563308 13 33 C10.8141602 36.04456257 8.41889073 37.53476111 5 39 C-0.75 34.5 -0.75 34.5 -3 30 C-4.98 32.64 -6.96 35.28 -9 38 C-15.32835821 37.40298507 -15.32835821 37.40298507 -17.875 35.875 C-20.2709246 31.88179233 -20.14202009 27.74540929 -19.29296875 23.2890625 C-18.92816406 22.07992188 -18.56335938 20.87078125 -18.1875 19.625 C-17.83042969 18.40039062 -17.47335938 17.17578125 -17.10546875 15.9140625 C-16 13 -16 13 -14 12 C-13.71125 11.0925 -13.4225 10.185 -13.125 9.25 C-10.71415335 2.28533189 -7.35286121 -0.72086875 0 0 Z " fill="#FEFEFE" transform="translate(261,265)"/>
<path d="" fill="#FFFFFF" transform="translate(0,0)"/>
<path d="" fill="#FFFFFF" transform="translate(0,0)"/>
<path d="" fill="#FFFFFF" transform="translate(0,0)"/>
</svg>
